<?xml version="1.0" encoding="UTF-8" standalone="no"?>
<!DOCTYPE svg PUBLIC "-//W3C//DTD SVG 1.1//EN" "http://www.w3.org/Graphics/SVG/1.1/DTD/svg11.dtd">
<svg xmlns="http://www.w3.org/2000/svg" version="1.1" viewBox="0.00 0.00 259.00 132.00">
<g stroke-width="2.00" fill="none" stroke-linecap="butt">
<path stroke="#a8c3e0" vector-effect="non-scaling-stroke" d="
  M 188.88 24.07
  Q 190.24 27.11 189.79 23.81
  Q 189.08 18.69 188.69 12.56
  Q 188.44 8.71 187.76 12.51
  Q 186.59 18.95 188.88 24.07"
/>
<path stroke="#a8c3e0" vector-effect="non-scaling-stroke" d="
  M 184.78 28.24
  Q 185.93 30.43 185.50 27.99
  Q 184.60 22.77 184.41 17.36
  Q 184.34 15.11 183.58 17.23
  Q 181.72 22.42 184.78 28.24"
/>
<path stroke="#a8c3e0" vector-effect="non-scaling-stroke" d="
  M 196.79 18.81
  C 195.67 22.13 195.02 27.64 196.98 30.44
  Q 197.56 31.26 197.55 30.26
  L 197.46 18.91
  Q 197.44 16.85 196.79 18.81"
/>
<path stroke="#a8c3e0" vector-effect="non-scaling-stroke" d="
  M 194.96 53.72
  Q 194.10 54.98 193.56 56.34
  Q 192.93 57.91 193.99 56.60
  Q 195.17 55.14 196.03 53.52
  A 1.13 1.10 -79.5 0 1 196.85 52.94
  Q 198.28 52.71 199.70 52.87
  Q 205.22 53.48 209.67 53.50
  Q 210.72 53.50 209.68 53.35
  Q 203.80 52.46 197.60 51.82
  A 0.30 0.29 19.3 0 1 197.38 51.37
  Q 200.09 47.17 201.99 41.48
  Q 203.98 35.52 198.23 32.36
  Q 197.58 32.01 197.78 32.72
  C 198.44 35.04 200.53 36.99 200.11 39.52
  Q 199.10 45.53 195.86 51.31
  A 1.07 1.07 0.0 0 1 194.79 51.86
  L 191.80 51.51
  Q 191.26 51.45 191.49 50.95
  Q 194.63 44.28 195.53 37.29
  Q 196.31 31.20 191.01 28.08
  Q 190.39 27.72 190.54 28.42
  Q 191.00 30.63 192.18 32.66
  C 193.41 34.77 193.46 36.94 193.05 39.26
  Q 192.02 45.16 190.20 50.54
  Q 189.80 51.72 188.56 51.63
  L 186.76 51.51
  Q 185.70 51.44 186.23 50.53
  C 188.73 46.28 191.42 40.68 190.73 35.85
  Q 190.37 33.31 186.72 31.22
  Q 186.09 30.87 186.21 31.58
  C 186.63 33.99 188.67 35.48 188.67 37.98
  C 188.66 42.11 186.27 47.52 184.50 51.02
  Q 184.23 51.55 183.65 51.55
  C 179.07 51.53 171.45 52.13 167.90 54.92
  Q 166.18 56.26 167.99 57.48
  Q 171.19 59.63 175.72 60.33
  Q 193.00 63.04 210.02 58.36
  Q 211.09 58.06 209.99 58.21
  Q 196.66 59.97 182.45 59.40
  Q 175.53 59.12 170.70 57.54
  Q 168.10 56.69 170.22 54.95
  C 172.99 52.68 180.04 52.28 183.31 52.42
  A 0.47 0.47 0.0 0 1 183.70 53.13
  Q 182.79 54.73 182.06 56.29
  Q 181.31 57.88 182.48 56.57
  Q 183.62 55.28 184.39 53.65
  Q 184.97 52.41 186.34 52.44
  L 188.49 52.48
  Q 189.92 52.50 189.23 53.75
  Q 188.58 54.92 188.42 56.09
  Q 188.31 56.91 188.80 56.24
  Q 189.81 54.86 190.34 53.27
  Q 190.67 52.28 191.71 52.42
  L 194.56 52.81
  Q 195.50 52.94 194.96 53.72"
/>
<path stroke="#a8c3e0" vector-effect="non-scaling-stroke" d="
  M 84.00 53.73
  L 84.02 33.97
  A 0.56 0.56 0.0 0 0 83.46 33.41
  L 74.11 33.37
  Q 73.45 33.37 73.45 34.03
  L 73.44 89.50
  A 0.43 0.43 0.0 0 0 73.87 89.93
  L 83.46 89.89
  Q 84.08 89.89 84.08 89.26
  Q 83.94 76.29 84.02 63.17
  C 84.05 58.29 97.61 54.94 97.67 64.53
  Q 97.75 77.05 97.71 89.39
  Q 97.70 89.94 98.26 89.94
  L 107.77 89.93
  Q 108.25 89.93 108.25 89.44
  Q 108.32 76.30 108.10 63.81
  C 107.87 50.81 94.35 46.19 84.63 54.03
  A 0.39 0.39 0.0 0 1 84.00 53.73"
/>
<path stroke="#a8c3e0" vector-effect="non-scaling-stroke" d="
  M 44.61 80.26
  C 35.58 77.64 32.52 67.57 33.68 59.03
  Q 35.74 43.94 50.02 43.96
  Q 54.65 43.97 60.02 47.57
  Q 62.32 49.12 63.97 46.88
  L 67.23 42.44
  Q 67.96 41.44 67.00 40.66
  Q 56.16 31.95 41.77 35.21
  C 14.87 41.32 14.99 84.38 42.10 89.90
  C 51.64 91.84 61.17 89.90 67.95 82.71
  Q 68.63 81.98 67.94 81.26
  L 63.86 76.96
  Q 62.56 75.59 61.11 76.79
  Q 53.67 82.89 44.61 80.26"
/>
<path stroke="#a8c3e0" vector-effect="non-scaling-stroke" d="
  M 144.76 35.07
  A 0.51 0.51 0.0 0 0 144.39 34.20
  L 132.76 34.47
  A 0.51 0.51 0.0 0 0 132.34 34.73
  L 126.29 45.07
  A 0.51 0.51 0.0 0 0 126.75 45.84
  L 134.22 45.56
  A 0.51 0.51 0.0 0 0 134.56 45.41
  L 144.76 35.07"
/>
<path stroke="#a8c3e0" vector-effect="non-scaling-stroke" d="
  M 138.37 86.28
  C 139.00 90.86 143.32 90.16 146.65 89.91
  Q 147.25 89.87 147.24 89.27
  Q 147.12 78.61 147.23 67.50
  Q 147.28 63.03 146.38 60.11
  C 142.12 46.30 124.69 48.60 116.04 55.82
  A 0.84 0.84 0.0 0 0 115.81 56.81
  C 116.99 59.36 119.16 62.85 122.57 60.99
  C 129.19 57.38 137.56 56.11 136.89 66.69
  Q 136.85 67.30 136.23 67.32
  C 128.05 67.62 112.07 69.72 113.87 81.75
  C 114.75 87.62 119.11 90.37 124.70 90.56
  Q 131.71 90.81 137.36 85.90
  A 0.62 0.61 65.4 0 1 138.37 86.28"
/>
<path stroke="#a8c3e0" vector-effect="non-scaling-stroke" d="
  M 218.80 59.41
  Q 217.49 61.07 219.28 59.94
  Q 221.01 58.84 222.64 58.33
  C 224.77 57.67 227.21 59.40 226.39 61.76
  C 224.21 67.96 216.06 74.15 210.50 77.04
  Q 210.45 77.06 210.49 77.10
  L 210.75 77.40
  Q 210.83 77.50 210.94 77.45
  Q 222.56 73.11 228.28 62.37
  Q 229.24 60.55 229.42 58.33
  Q 229.47 57.72 229.13 57.21
  C 226.75 53.67 220.71 56.98 218.80 59.41"
/>
<path stroke="#a8c3e0" vector-effect="non-scaling-stroke" d="
  M 201.05 80.61
  C 187.90 90.84 175.66 75.86 169.28 66.00
  Q 169.18 65.85 169.03 65.94
  L 169.02 65.94
  Q 168.81 66.06 168.92 66.28
  Q 173.07 74.46 179.19 80.76
  C 186.00 87.77 194.39 88.35 202.34 82.73
  Q 209.82 77.42 216.71 61.22
  Q 216.89 60.80 216.72 60.39
  L 216.61 60.12
  A 0.07 0.07 0.0 0 0 216.49 60.12
  Q 215.11 62.67 210.42 70.09
  Q 206.40 76.45 201.05 80.61"
/>
<path stroke="#a8c3e0" vector-effect="non-scaling-stroke" d="
  M 214.49 80.16
  C 213.47 80.19 212.32 80.62 211.39 80.62
  Q 211.37 80.62 211.37 80.62
  Q 211.37 80.62 211.37 80.62
  Q 211.43 80.60 211.48 80.60
  Q 216.72 80.51 222.22 81.54
  Q 224.85 82.03 226.85 83.24
  C 230.23 85.28 225.77 89.26 223.89 90.43
  Q 214.48 96.24 203.29 95.71
  Q 189.94 95.08 176.76 92.99
  C 172.37 92.29 166.50 91.13 163.04 88.43
  A 1.62 1.62 0.0 0 1 162.89 86.01
  C 164.91 83.96 167.96 83.06 170.67 82.18
  Q 172.65 81.55 170.60 81.90
  C 167.30 82.46 161.82 83.61 159.28 85.94
  A 1.76 1.76 0.0 0 0 159.56 88.74
  Q 163.33 91.02 167.82 92.27
  Q 183.52 96.67 199.78 97.41
  C 210.99 97.92 225.22 96.31 233.67 88.38
  A 2.18 2.18 0.0 0 0 233.85 85.39
  Q 231.65 82.73 228.10 81.74
  Q 221.73 79.95 214.49 80.16"
/>
<path stroke="#a8c3e0" vector-effect="non-scaling-stroke" d="
  M 29.28 123.87
  C 37.54 123.50 42.31 114.86 39.55 107.57
  C 37.13 101.18 29.81 102.06 24.44 102.12
  Q 23.59 102.13 23.49 102.97
  L 20.99 123.28
  A 0.55 0.55 0.0 0 0 21.51 123.89
  Q 25.20 124.05 29.28 123.87"
/>
<path stroke="#a8c3e0" vector-effect="non-scaling-stroke" d="
  M 47.82 120.76
  A 0.66 0.66 0.0 0 1 47.17 120.02
  L 47.74 115.15
  A 0.66 0.66 0.0 0 1 48.38 114.57
  L 54.16 114.42
  A 0.66 0.66 0.0 0 0 54.79 113.90
  L 55.10 112.36
  A 0.66 0.66 0.0 0 0 54.48 111.57
  L 48.96 111.39
  A 0.66 0.66 0.0 0 1 48.33 110.66
  L 48.82 106.05
  A 0.66 0.66 0.0 0 1 49.46 105.46
  L 57.14 105.29
  A 0.66 0.66 0.0 0 0 57.76 104.78
  L 58.18 102.98
  A 0.66 0.66 0.0 0 0 57.53 102.17
  L 45.92 102.15
  A 0.66 0.66 0.0 0 0 45.27 102.73
  L 42.74 123.20
  A 0.66 0.66 0.0 0 0 43.40 123.94
  L 55.04 123.86
  A 0.66 0.66 0.0 0 0 55.69 123.22
  L 55.73 121.45
  A 0.66 0.66 0.0 0 0 55.08 120.78
  L 47.82 120.76"
/>
<path stroke="#a8c3e0" vector-effect="non-scaling-stroke" d="
  M 77.52 105.50
  Q 80.04 105.27 82.23 106.65
  Q 82.72 106.96 83.27 106.81
  Q 84.51 106.49 84.79 105.29
  A 1.02 1.02 0.0 0 0 84.52 104.32
  C 80.82 100.54 74.44 101.68 70.96 104.94
  Q 66.56 109.08 67.07 116.02
  C 67.69 124.21 75.51 126.00 81.89 122.13
  A 1.46 1.39 -3.9 0 0 82.43 121.54
  Q 83.13 120.10 82.52 119.62
  Q 81.63 118.94 80.62 119.40
  Q 79.52 119.90 78.37 120.36
  C 74.76 121.81 71.58 119.65 71.22 115.76
  C 70.80 111.31 72.55 105.96 77.52 105.50"
/>
<path stroke="#a8c3e0" vector-effect="non-scaling-stroke" d="
  M 91.65 118.54
  L 97.72 118.52
  A 1.45 1.44 -4.7 0 1 99.15 119.72
  L 99.68 122.99
  Q 99.83 123.87 100.73 123.89
  L 103.45 123.94
  A 0.49 0.48 84.4 0 0 103.93 123.34
  L 99.05 102.92
  Q 98.93 102.42 98.44 102.27
  Q 96.71 101.73 95.22 102.28
  Q 94.64 102.49 94.37 103.05
  L 84.69 123.04
  Q 84.22 124.02 85.31 124.00
  L 87.34 123.96
  Q 88.47 123.93 88.92 122.90
  L 90.46 119.32
  Q 90.80 118.54 91.65 118.54"
/>
<path stroke="#a8c3e0" vector-effect="non-scaling-stroke" d="
  M 111.94 107.70
  C 112.76 104.52 116.00 105.11 118.41 106.31
  Q 119.57 106.88 120.33 105.84
  L 120.51 105.59
  Q 121.43 104.33 120.12 103.48
  C 114.48 99.84 107.42 103.23 108.25 110.31
  C 108.60 113.30 112.11 114.18 114.46 115.23
  Q 116.95 116.34 115.82 118.83
  Q 115.58 119.35 115.17 119.74
  Q 112.97 121.81 110.37 120.26
  L 108.87 119.37
  Q 107.76 118.71 106.84 119.61
  Q 106.38 120.06 106.09 120.62
  Q 105.59 121.59 106.49 122.21
  C 112.18 126.13 119.87 123.82 120.01 116.27
  C 120.09 112.53 115.83 111.36 113.12 110.15
  A 2.11 2.11 0.0 0 1 111.94 107.70"
/>
<path stroke="#a8c3e0" vector-effect="non-scaling-stroke" d="
  M 135.77 119.40
  L 136.51 123.09
  Q 136.64 123.76 137.32 123.82
  L 139.70 124.04
  Q 140.83 124.15 140.57 123.04
  L 135.88 103.24
  A 1.47 1.46 -0.3 0 0 134.77 102.15
  Q 131.76 101.49 130.87 103.42
  Q 126.54 112.77 121.51 122.80
  Q 120.91 124.00 122.26 123.98
  L 123.75 123.97
  Q 125.27 123.95 125.85 122.54
  L 126.98 119.76
  A 1.93 1.92 10.6 0 1 128.73 118.57
  L 134.65 118.50
  A 1.13 1.13 0.0 0 1 135.77 119.40"
/>
<path stroke="#a8c3e0" vector-effect="non-scaling-stroke" d="
  M 155.90 110.07
  Q 156.08 108.62 156.79 109.90
  Q 160.26 116.16 163.94 122.54
  Q 164.92 124.24 166.93 123.98
  A 1.05 1.03 -0.0 0 0 167.84 123.08
  L 170.39 102.85
  Q 170.47 102.25 169.86 102.23
  L 167.51 102.16
  Q 166.90 102.14 166.83 102.75
  L 165.19 116.05
  Q 165.03 117.32 164.38 116.21
  Q 160.75 110.03 157.14 103.58
  Q 155.93 101.43 153.77 102.29
  A 0.82 0.82 0.0 0 0 153.26 102.95
  L 150.77 122.94
  Q 150.64 123.98 151.68 123.97
  L 153.25 123.97
  A 1.11 1.10 -86.4 0 0 154.34 123.00
  L 155.90 110.07"
/>
<path stroke="#a8c3e0" vector-effect="non-scaling-stroke" d="
  M 177.8055 123.1844
  A 11.52 10.07 118.6 0 0 192.1613 117.8904
  A 11.52 10.07 118.6 0 0 188.8345 102.9556
  A 11.52 10.07 118.6 0 0 174.4787 108.2496
  A 11.52 10.07 118.6 0 0 177.8055 123.1844"
/>
<path stroke="#a8c3e0" vector-effect="non-scaling-stroke" d="
  M 204.58 118.13
  L 201.44 103.50
  Q 201.14 102.13 199.75 102.13
  L 198.06 102.12
  Q 196.91 102.12 197.19 103.23
  L 202.09 123.06
  Q 202.23 123.62 202.77 123.79
  Q 204.28 124.27 205.61 123.79
  Q 206.15 123.60 206.40 123.09
  L 216.21 103.21
  Q 216.79 102.02 215.47 102.05
  L 213.83 102.10
  Q 212.42 102.13 211.84 103.42
  L 205.18 118.20
  Q 204.78 119.07 204.58 118.13"
/>
<path stroke="#a8c3e0" vector-effect="non-scaling-stroke" d="
  M 229.73 119.19
  L 230.34 122.51
  Q 230.59 123.82 231.91 123.91
  L 233.59 124.03
  Q 234.83 124.11 234.54 122.91
  L 229.83 103.02
  Q 229.67 102.34 228.98 102.18
  Q 227.51 101.83 226.14 102.22
  Q 225.40 102.44 225.06 103.14
  L 215.57 122.82
  Q 215.01 123.99 216.30 123.98
  L 217.56 123.98
  Q 219.23 123.97 219.89 122.42
  L 221.23 119.23
  A 1.05 1.02 -78.3 0 1 222.18 118.59
  L 228.91 118.51
  A 0.82 0.82 0.0 0 1 229.73 119.19"
/>
<path stroke="#a8c3e0" vector-effect="non-scaling-stroke" d="
  M 124.19 81.21
  C 126.18 85.73 133.95 82.65 136.31 80.15
  Q 136.74 79.70 136.75 79.08
  L 136.89 74.28
  A 0.64 0.63 -0.8 0 0 136.21 73.63
  C 132.78 73.86 121.30 74.66 124.19 81.21"
/>
<path stroke="#a8c3e0" vector-effect="non-scaling-stroke" d="
  M 25.96 120.71
  C 30.31 121.24 34.26 120.12 35.63 115.59
  C 37.51 109.35 35.23 104.20 27.77 105.53
  A 0.84 0.84 0.0 0 0 27.08 106.26
  L 25.41 120.00
  Q 25.33 120.63 25.96 120.71"
/>
<path stroke="#a8c3e0" vector-effect="non-scaling-stroke" d="
  M 92.38 115.09
  A 0.42 0.42 0.0 0 0 92.76 115.68
  L 97.74 115.73
  A 0.42 0.42 0.0 0 0 98.15 115.24
  L 96.64 107.32
  A 0.42 0.42 0.0 0 0 95.85 107.23
  L 92.38 115.09"
/>
<path stroke="#a8c3e0" vector-effect="non-scaling-stroke" d="
  M 129.04 115.18
  A 0.37 0.37 0.0 0 0 129.38 115.70
  L 134.56 115.73
  A 0.37 0.37 0.0 0 0 134.93 115.29
  L 133.38 107.21
  A 0.37 0.37 0.0 0 0 132.68 107.13
  L 129.04 115.18"
/>
<path stroke="#a8c3e0" vector-effect="non-scaling-stroke" d="
  M 181.2491 120.8360
  A 8.04 6.19 105.0 0 0 189.3091 114.6721
  A 8.04 6.19 105.0 0 0 185.4109 105.3040
  A 8.04 6.19 105.0 0 0 177.3509 111.4679
  A 8.04 6.19 105.0 0 0 181.2491 120.8360"
/>
<path stroke="#a8c3e0" vector-effect="non-scaling-stroke" d="
  M 223.04 115.17
  A 0.37 0.37 0.0 0 0 223.37 115.69
  L 228.55 115.72
  A 0.37 0.37 0.0 0 0 228.92 115.28
  L 227.38 107.21
  A 0.37 0.37 0.0 0 0 226.68 107.12
  L 223.04 115.17"
/>
</g>
<path fill="#5086c1" d="
  M 0.00 0.00
  L 259.00 0.00
  L 259.00 132.00
  L 0.00 132.00
  L 0.00 0.00
  Z
  M 188.88 24.07
  Q 190.24 27.11 189.79 23.81
  Q 189.08 18.69 188.69 12.56
  Q 188.44 8.71 187.76 12.51
  Q 186.59 18.95 188.88 24.07
  Z
  M 184.78 28.24
  Q 185.93 30.43 185.50 27.99
  Q 184.60 22.77 184.41 17.36
  Q 184.34 15.11 183.58 17.23
  Q 181.72 22.42 184.78 28.24
  Z
  M 196.79 18.81
  C 195.67 22.13 195.02 27.64 196.98 30.44
  Q 197.56 31.26 197.55 30.26
  L 197.46 18.91
  Q 197.44 16.85 196.79 18.81
  Z
  M 194.96 53.72
  Q 194.10 54.98 193.56 56.34
  Q 192.93 57.91 193.99 56.60
  Q 195.17 55.14 196.03 53.52
  A 1.13 1.10 -79.5 0 1 196.85 52.94
  Q 198.28 52.71 199.70 52.87
  Q 205.22 53.48 209.67 53.50
  Q 210.72 53.50 209.68 53.35
  Q 203.80 52.46 197.60 51.82
  A 0.30 0.29 19.3 0 1 197.38 51.37
  Q 200.09 47.17 201.99 41.48
  Q 203.98 35.52 198.23 32.36
  Q 197.58 32.01 197.78 32.72
  C 198.44 35.04 200.53 36.99 200.11 39.52
  Q 199.10 45.53 195.86 51.31
  A 1.07 1.07 0.0 0 1 194.79 51.86
  L 191.80 51.51
  Q 191.26 51.45 191.49 50.95
  Q 194.63 44.28 195.53 37.29
  Q 196.31 31.20 191.01 28.08
  Q 190.39 27.72 190.54 28.42
  Q 191.00 30.63 192.18 32.66
  C 193.41 34.77 193.46 36.94 193.05 39.26
  Q 192.02 45.16 190.20 50.54
  Q 189.80 51.72 188.56 51.63
  L 186.76 51.51
  Q 185.70 51.44 186.23 50.53
  C 188.73 46.28 191.42 40.68 190.73 35.85
  Q 190.37 33.31 186.72 31.22
  Q 186.09 30.87 186.21 31.58
  C 186.63 33.99 188.67 35.48 188.67 37.98
  C 188.66 42.11 186.27 47.52 184.50 51.02
  Q 184.23 51.55 183.65 51.55
  C 179.07 51.53 171.45 52.13 167.90 54.92
  Q 166.18 56.26 167.99 57.48
  Q 171.19 59.63 175.72 60.33
  Q 193.00 63.04 210.02 58.36
  Q 211.09 58.06 209.99 58.21
  Q 196.66 59.97 182.45 59.40
  Q 175.53 59.12 170.70 57.54
  Q 168.10 56.69 170.22 54.95
  C 172.99 52.68 180.04 52.28 183.31 52.42
  A 0.47 0.47 0.0 0 1 183.70 53.13
  Q 182.79 54.73 182.06 56.29
  Q 181.31 57.88 182.48 56.57
  Q 183.62 55.28 184.39 53.65
  Q 184.97 52.41 186.34 52.44
  L 188.49 52.48
  Q 189.92 52.50 189.23 53.75
  Q 188.58 54.92 188.42 56.09
  Q 188.31 56.91 188.80 56.24
  Q 189.81 54.86 190.34 53.27
  Q 190.67 52.28 191.71 52.42
  L 194.56 52.81
  Q 195.50 52.94 194.96 53.72
  Z
  M 84.00 53.73
  L 84.02 33.97
  A 0.56 0.56 0.0 0 0 83.46 33.41
  L 74.11 33.37
  Q 73.45 33.37 73.45 34.03
  L 73.44 89.50
  A 0.43 0.43 0.0 0 0 73.87 89.93
  L 83.46 89.89
  Q 84.08 89.89 84.08 89.26
  Q 83.94 76.29 84.02 63.17
  C 84.05 58.29 97.61 54.94 97.67 64.53
  Q 97.75 77.05 97.71 89.39
  Q 97.70 89.94 98.26 89.94
  L 107.77 89.93
  Q 108.25 89.93 108.25 89.44
  Q 108.32 76.30 108.10 63.81
  C 107.87 50.81 94.35 46.19 84.63 54.03
  A 0.39 0.39 0.0 0 1 84.00 53.73
  Z
  M 44.61 80.26
  C 35.58 77.64 32.52 67.57 33.68 59.03
  Q 35.74 43.94 50.02 43.96
  Q 54.65 43.97 60.02 47.57
  Q 62.32 49.12 63.97 46.88
  L 67.23 42.44
  Q 67.96 41.44 67.00 40.66
  Q 56.16 31.95 41.77 35.21
  C 14.87 41.32 14.99 84.38 42.10 89.90
  C 51.64 91.84 61.17 89.90 67.95 82.71
  Q 68.63 81.98 67.94 81.26
  L 63.86 76.96
  Q 62.56 75.59 61.11 76.79
  Q 53.67 82.89 44.61 80.26
  Z
  M 144.76 35.07
  A 0.51 0.51 0.0 0 0 144.39 34.20
  L 132.76 34.47
  A 0.51 0.51 0.0 0 0 132.34 34.73
  L 126.29 45.07
  A 0.51 0.51 0.0 0 0 126.75 45.84
  L 134.22 45.56
  A 0.51 0.51 0.0 0 0 134.56 45.41
  L 144.76 35.07
  Z
  M 138.37 86.28
  C 139.00 90.86 143.32 90.16 146.65 89.91
  Q 147.25 89.87 147.24 89.27
  Q 147.12 78.61 147.23 67.50
  Q 147.28 63.03 146.38 60.11
  C 142.12 46.30 124.69 48.60 116.04 55.82
  A 0.84 0.84 0.0 0 0 115.81 56.81
  C 116.99 59.36 119.16 62.85 122.57 60.99
  C 129.19 57.38 137.56 56.11 136.89 66.69
  Q 136.85 67.30 136.23 67.32
  C 128.05 67.62 112.07 69.72 113.87 81.75
  C 114.75 87.62 119.11 90.37 124.70 90.56
  Q 131.71 90.81 137.36 85.90
  A 0.62 0.61 65.4 0 1 138.37 86.28
  Z
  M 218.80 59.41
  Q 217.49 61.07 219.28 59.94
  Q 221.01 58.84 222.64 58.33
  C 224.77 57.67 227.21 59.40 226.39 61.76
  C 224.21 67.96 216.06 74.15 210.50 77.04
  Q 210.45 77.06 210.49 77.10
  L 210.75 77.40
  Q 210.83 77.50 210.94 77.45
  Q 222.56 73.11 228.28 62.37
  Q 229.24 60.55 229.42 58.33
  Q 229.47 57.72 229.13 57.21
  C 226.75 53.67 220.71 56.98 218.80 59.41
  Z
  M 201.05 80.61
  C 187.90 90.84 175.66 75.86 169.28 66.00
  Q 169.18 65.85 169.03 65.94
  L 169.02 65.94
  Q 168.81 66.06 168.92 66.28
  Q 173.07 74.46 179.19 80.76
  C 186.00 87.77 194.39 88.35 202.34 82.73
  Q 209.82 77.42 216.71 61.22
  Q 216.89 60.80 216.72 60.39
  L 216.61 60.12
  A 0.07 0.07 0.0 0 0 216.49 60.12
  Q 215.11 62.67 210.42 70.09
  Q 206.40 76.45 201.05 80.61
  Z
  M 214.49 80.16
  C 213.47 80.19 212.32 80.62 211.39 80.62
  Q 211.37 80.62 211.37 80.62
  Q 211.37 80.62 211.37 80.62
  Q 211.43 80.60 211.48 80.60
  Q 216.72 80.51 222.22 81.54
  Q 224.85 82.03 226.85 83.24
  C 230.23 85.28 225.77 89.26 223.89 90.43
  Q 214.48 96.24 203.29 95.71
  Q 189.94 95.08 176.76 92.99
  C 172.37 92.29 166.50 91.13 163.04 88.43
  A 1.62 1.62 0.0 0 1 162.89 86.01
  C 164.91 83.96 167.96 83.06 170.67 82.18
  Q 172.65 81.55 170.60 81.90
  C 167.30 82.46 161.82 83.61 159.28 85.94
  A 1.76 1.76 0.0 0 0 159.56 88.74
  Q 163.33 91.02 167.82 92.27
  Q 183.52 96.67 199.78 97.41
  C 210.99 97.92 225.22 96.31 233.67 88.38
  A 2.18 2.18 0.0 0 0 233.85 85.39
  Q 231.65 82.73 228.10 81.74
  Q 221.73 79.95 214.49 80.16
  Z
  M 29.28 123.87
  C 37.54 123.50 42.31 114.86 39.55 107.57
  C 37.13 101.18 29.81 102.06 24.44 102.12
  Q 23.59 102.13 23.49 102.97
  L 20.99 123.28
  A 0.55 0.55 0.0 0 0 21.51 123.89
  Q 25.20 124.05 29.28 123.87
  Z
  M 47.82 120.76
  A 0.66 0.66 0.0 0 1 47.17 120.02
  L 47.74 115.15
  A 0.66 0.66 0.0 0 1 48.38 114.57
  L 54.16 114.42
  A 0.66 0.66 0.0 0 0 54.79 113.90
  L 55.10 112.36
  A 0.66 0.66 0.0 0 0 54.48 111.57
  L 48.96 111.39
  A 0.66 0.66 0.0 0 1 48.33 110.66
  L 48.82 106.05
  A 0.66 0.66 0.0 0 1 49.46 105.46
  L 57.14 105.29
  A 0.66 0.66 0.0 0 0 57.76 104.78
  L 58.18 102.98
  A 0.66 0.66 0.0 0 0 57.53 102.17
  L 45.92 102.15
  A 0.66 0.66 0.0 0 0 45.27 102.73
  L 42.74 123.20
  A 0.66 0.66 0.0 0 0 43.40 123.94
  L 55.04 123.86
  A 0.66 0.66 0.0 0 0 55.69 123.22
  L 55.73 121.45
  A 0.66 0.66 0.0 0 0 55.08 120.78
  L 47.82 120.76
  Z
  M 77.52 105.50
  Q 80.04 105.27 82.23 106.65
  Q 82.72 106.96 83.27 106.81
  Q 84.51 106.49 84.79 105.29
  A 1.02 1.02 0.0 0 0 84.52 104.32
  C 80.82 100.54 74.44 101.68 70.96 104.94
  Q 66.56 109.08 67.07 116.02
  C 67.69 124.21 75.51 126.00 81.89 122.13
  A 1.46 1.39 -3.9 0 0 82.43 121.54
  Q 83.13 120.10 82.52 119.62
  Q 81.63 118.94 80.62 119.40
  Q 79.52 119.90 78.37 120.36
  C 74.76 121.81 71.58 119.65 71.22 115.76
  C 70.80 111.31 72.55 105.96 77.52 105.50
  Z
  M 91.65 118.54
  L 97.72 118.52
  A 1.45 1.44 -4.7 0 1 99.15 119.72
  L 99.68 122.99
  Q 99.83 123.87 100.73 123.89
  L 103.45 123.94
  A 0.49 0.48 84.4 0 0 103.93 123.34
  L 99.05 102.92
  Q 98.93 102.42 98.44 102.27
  Q 96.71 101.73 95.22 102.28
  Q 94.64 102.49 94.37 103.05
  L 84.69 123.04
  Q 84.22 124.02 85.31 124.00
  L 87.34 123.96
  Q 88.47 123.93 88.92 122.90
  L 90.46 119.32
  Q 90.80 118.54 91.65 118.54
  Z
  M 111.94 107.70
  C 112.76 104.52 116.00 105.11 118.41 106.31
  Q 119.57 106.88 120.33 105.84
  L 120.51 105.59
  Q 121.43 104.33 120.12 103.48
  C 114.48 99.84 107.42 103.23 108.25 110.31
  C 108.60 113.30 112.11 114.18 114.46 115.23
  Q 116.95 116.34 115.82 118.83
  Q 115.58 119.35 115.17 119.74
  Q 112.97 121.81 110.37 120.26
  L 108.87 119.37
  Q 107.76 118.71 106.84 119.61
  Q 106.38 120.06 106.09 120.62
  Q 105.59 121.59 106.49 122.21
  C 112.18 126.13 119.87 123.82 120.01 116.27
  C 120.09 112.53 115.83 111.36 113.12 110.15
  A 2.11 2.11 0.0 0 1 111.94 107.70
  Z
  M 135.77 119.40
  L 136.51 123.09
  Q 136.64 123.76 137.32 123.82
  L 139.70 124.04
  Q 140.83 124.15 140.57 123.04
  L 135.88 103.24
  A 1.47 1.46 -0.3 0 0 134.77 102.15
  Q 131.76 101.49 130.87 103.42
  Q 126.54 112.77 121.51 122.80
  Q 120.91 124.00 122.26 123.98
  L 123.75 123.97
  Q 125.27 123.95 125.85 122.54
  L 126.98 119.76
  A 1.93 1.92 10.6 0 1 128.73 118.57
  L 134.65 118.50
  A 1.13 1.13 0.0 0 1 135.77 119.40
  Z
  M 155.90 110.07
  Q 156.08 108.62 156.79 109.90
  Q 160.26 116.16 163.94 122.54
  Q 164.92 124.24 166.93 123.98
  A 1.05 1.03 -0.0 0 0 167.84 123.08
  L 170.39 102.85
  Q 170.47 102.25 169.86 102.23
  L 167.51 102.16
  Q 166.90 102.14 166.83 102.75
  L 165.19 116.05
  Q 165.03 117.32 164.38 116.21
  Q 160.75 110.03 157.14 103.58
  Q 155.93 101.43 153.77 102.29
  A 0.82 0.82 0.0 0 0 153.26 102.95
  L 150.77 122.94
  Q 150.64 123.98 151.68 123.97
  L 153.25 123.97
  A 1.11 1.10 -86.4 0 0 154.34 123.00
  L 155.90 110.07
  Z
  M 177.8055 123.1844
  A 11.52 10.07 118.6 0 0 192.1613 117.8904
  A 11.52 10.07 118.6 0 0 188.8345 102.9556
  A 11.52 10.07 118.6 0 0 174.4787 108.2496
  A 11.52 10.07 118.6 0 0 177.8055 123.1844
  Z
  M 204.58 118.13
  L 201.44 103.50
  Q 201.14 102.13 199.75 102.13
  L 198.06 102.12
  Q 196.91 102.12 197.19 103.23
  L 202.09 123.06
  Q 202.23 123.62 202.77 123.79
  Q 204.28 124.27 205.61 123.79
  Q 206.15 123.60 206.40 123.09
  L 216.21 103.21
  Q 216.79 102.02 215.47 102.05
  L 213.83 102.10
  Q 212.42 102.13 211.84 103.42
  L 205.18 118.20
  Q 204.78 119.07 204.58 118.13
  Z
  M 229.73 119.19
  L 230.34 122.51
  Q 230.59 123.82 231.91 123.91
  L 233.59 124.03
  Q 234.83 124.11 234.54 122.91
  L 229.83 103.02
  Q 229.67 102.34 228.98 102.18
  Q 227.51 101.83 226.14 102.22
  Q 225.40 102.44 225.06 103.14
  L 215.57 122.82
  Q 215.01 123.99 216.30 123.98
  L 217.56 123.98
  Q 219.23 123.97 219.89 122.42
  L 221.23 119.23
  A 1.05 1.02 -78.3 0 1 222.18 118.59
  L 228.91 118.51
  A 0.82 0.82 0.0 0 1 229.73 119.19
  Z"
/>
<path fill="#ffffff" d="
  M 188.88 24.07
  Q 186.59 18.95 187.76 12.51
  Q 188.44 8.71 188.69 12.56
  Q 189.08 18.69 189.79 23.81
  Q 190.24 27.11 188.88 24.07
  Z"
/>
<path fill="#ffffff" d="
  M 184.78 28.24
  Q 181.72 22.42 183.58 17.23
  Q 184.34 15.11 184.41 17.36
  Q 184.60 22.77 185.50 27.99
  Q 185.93 30.43 184.78 28.24
  Z"
/>
<path fill="#ffffff" d="
  M 196.98 30.44
  C 195.02 27.64 195.67 22.13 196.79 18.81
  Q 197.44 16.85 197.46 18.91
  L 197.55 30.26
  Q 197.56 31.26 196.98 30.44
  Z"
/>
<path fill="#ffffff" d="
  M 194.96 53.72
  Q 195.50 52.94 194.56 52.81
  L 191.71 52.42
  Q 190.67 52.28 190.34 53.27
  Q 189.81 54.86 188.80 56.24
  Q 188.31 56.91 188.42 56.09
  Q 188.58 54.92 189.23 53.75
  Q 189.92 52.50 188.49 52.48
  L 186.34 52.44
  Q 184.97 52.41 184.39 53.65
  Q 183.62 55.28 182.48 56.57
  Q 181.31 57.88 182.06 56.29
  Q 182.79 54.73 183.70 53.13
  A 0.47 0.47 0.0 0 0 183.31 52.42
  C 180.04 52.28 172.99 52.68 170.22 54.95
  Q 168.10 56.69 170.70 57.54
  Q 175.53 59.12 182.45 59.40
  Q 196.66 59.97 209.99 58.21
  Q 211.09 58.06 210.02 58.36
  Q 193.00 63.04 175.72 60.33
  Q 171.19 59.63 167.99 57.48
  Q 166.18 56.26 167.90 54.92
  C 171.45 52.13 179.07 51.53 183.65 51.55
  Q 184.23 51.55 184.50 51.02
  C 186.27 47.52 188.66 42.11 188.67 37.98
  C 188.67 35.48 186.63 33.99 186.21 31.58
  Q 186.09 30.87 186.72 31.22
  Q 190.37 33.31 190.73 35.85
  C 191.42 40.68 188.73 46.28 186.23 50.53
  Q 185.70 51.44 186.76 51.51
  L 188.56 51.63
  Q 189.80 51.72 190.20 50.54
  Q 192.02 45.16 193.05 39.26
  C 193.46 36.94 193.41 34.77 192.18 32.66
  Q 191.00 30.63 190.54 28.42
  Q 190.39 27.72 191.01 28.08
  Q 196.31 31.20 195.53 37.29
  Q 194.63 44.28 191.49 50.95
  Q 191.26 51.45 191.80 51.51
  L 194.79 51.86
  A 1.07 1.07 0.0 0 0 195.86 51.31
  Q 199.10 45.53 200.11 39.52
  C 200.53 36.99 198.44 35.04 197.78 32.72
  Q 197.58 32.01 198.23 32.36
  Q 203.98 35.52 201.99 41.48
  Q 200.09 47.17 197.38 51.37
  A 0.30 0.29 19.3 0 0 197.60 51.82
  Q 203.80 52.46 209.68 53.35
  Q 210.72 53.50 209.67 53.50
  Q 205.22 53.48 199.70 52.87
  Q 198.28 52.71 196.85 52.94
  A 1.13 1.10 -79.5 0 0 196.03 53.52
  Q 195.17 55.14 193.99 56.60
  Q 192.93 57.91 193.56 56.34
  Q 194.10 54.98 194.96 53.72
  Z"
/>
<path fill="#ffffff" d="
  M 84.00 53.73
  A 0.39 0.39 0.0 0 0 84.63 54.03
  C 94.35 46.19 107.87 50.81 108.10 63.81
  Q 108.32 76.30 108.25 89.44
  Q 108.25 89.93 107.77 89.93
  L 98.26 89.94
  Q 97.70 89.94 97.71 89.39
  Q 97.75 77.05 97.67 64.53
  C 97.61 54.94 84.05 58.29 84.02 63.17
  Q 83.94 76.29 84.08 89.26
  Q 84.08 89.89 83.46 89.89
  L 73.87 89.93
  A 0.43 0.43 0.0 0 1 73.44 89.50
  L 73.45 34.03
  Q 73.45 33.37 74.11 33.37
  L 83.46 33.41
  A 0.56 0.56 0.0 0 1 84.02 33.97
  L 84.00 53.73
  Z"
/>
<path fill="#ffffff" d="
  M 33.68 59.03
  C 32.52 67.57 35.58 77.64 44.61 80.26
  Q 53.67 82.89 61.11 76.79
  Q 62.56 75.59 63.86 76.96
  L 67.94 81.26
  Q 68.63 81.98 67.95 82.71
  C 61.17 89.90 51.64 91.84 42.10 89.90
  C 14.99 84.38 14.87 41.32 41.77 35.21
  Q 56.16 31.95 67.00 40.66
  Q 67.96 41.44 67.23 42.44
  L 63.97 46.88
  Q 62.32 49.12 60.02 47.57
  Q 54.65 43.97 50.02 43.96
  Q 35.74 43.94 33.68 59.03
  Z"
/>
<path fill="#ffffff" d="
  M 144.76 35.07
  L 134.56 45.41
  A 0.51 0.51 0.0 0 1 134.22 45.56
  L 126.75 45.84
  A 0.51 0.51 0.0 0 1 126.29 45.07
  L 132.34 34.73
  A 0.51 0.51 0.0 0 1 132.76 34.47
  L 144.39 34.20
  A 0.51 0.51 0.0 0 1 144.76 35.07
  Z"
/>
<path fill="#ffffff" d="
  M 138.37 86.28
  A 0.62 0.61 65.4 0 0 137.36 85.90
  Q 131.71 90.81 124.70 90.56
  C 119.11 90.37 114.75 87.62 113.87 81.75
  C 112.07 69.72 128.05 67.62 136.23 67.32
  Q 136.85 67.30 136.89 66.69
  C 137.56 56.11 129.19 57.38 122.57 60.99
  C 119.16 62.85 116.99 59.36 115.81 56.81
  A 0.84 0.84 0.0 0 1 116.04 55.82
  C 124.69 48.60 142.12 46.30 146.38 60.11
  Q 147.28 63.03 147.23 67.50
  Q 147.12 78.61 147.24 89.27
  Q 147.25 89.87 146.65 89.91
  C 143.32 90.16 139.00 90.86 138.37 86.28
  Z
  M 124.19 81.21
  C 126.18 85.73 133.95 82.65 136.31 80.15
  Q 136.74 79.70 136.75 79.08
  L 136.89 74.28
  A 0.64 0.63 -0.8 0 0 136.21 73.63
  C 132.78 73.86 121.30 74.66 124.19 81.21
  Z"
/>
<path fill="#ffffff" d="
  M 218.80 59.41
  C 220.71 56.98 226.75 53.67 229.13 57.21
  Q 229.47 57.72 229.42 58.33
  Q 229.24 60.55 228.28 62.37
  Q 222.56 73.11 210.94 77.45
  Q 210.83 77.50 210.75 77.40
  L 210.49 77.10
  Q 210.45 77.06 210.50 77.04
  C 216.06 74.15 224.21 67.96 226.39 61.76
  C 227.21 59.40 224.77 57.67 222.64 58.33
  Q 221.01 58.84 219.28 59.94
  Q 217.49 61.07 218.80 59.41
  Z"
/>
<path fill="#ffffff" d="
  M 201.05 80.61
  Q 206.40 76.45 210.42 70.09
  Q 215.11 62.67 216.49 60.12
  A 0.07 0.07 0.0 0 1 216.61 60.12
  L 216.72 60.39
  Q 216.89 60.80 216.71 61.22
  Q 209.82 77.42 202.34 82.73
  C 194.39 88.35 186.00 87.77 179.19 80.76
  Q 173.07 74.46 168.92 66.28
  Q 168.81 66.06 169.02 65.94
  L 169.03 65.94
  Q 169.18 65.85 169.28 66.00
  C 175.66 75.86 187.90 90.84 201.05 80.61
  Z"
/>
<path fill="#5086c1" d="
  M 136.31 80.15
  C 133.95 82.65 126.18 85.73 124.19 81.21
  C 121.30 74.66 132.78 73.86 136.21 73.63
  A 0.64 0.63 -0.8 0 1 136.89 74.28
  L 136.75 79.08
  Q 136.74 79.70 136.31 80.15
  Z"
/>
<path fill="#ffffff" d="
  M 211.39 80.62
  C 212.32 80.62 213.47 80.19 214.49 80.16
  Q 221.73 79.95 228.10 81.74
  Q 231.65 82.73 233.85 85.39
  A 2.18 2.18 0.0 0 1 233.67 88.38
  C 225.22 96.31 210.99 97.92 199.78 97.41
  Q 183.52 96.67 167.82 92.27
  Q 163.33 91.02 159.56 88.74
  A 1.76 1.76 0.0 0 1 159.28 85.94
  C 161.82 83.61 167.30 82.46 170.60 81.90
  Q 172.65 81.55 170.67 82.18
  C 167.96 83.06 164.91 83.96 162.89 86.01
  A 1.62 1.62 0.0 0 0 163.04 88.43
  C 166.50 91.13 172.37 92.29 176.76 92.99
  Q 189.94 95.08 203.29 95.71
  Q 214.48 96.24 223.89 90.43
  C 225.77 89.26 230.23 85.28 226.85 83.24
  Q 224.85 82.03 222.22 81.54
  Q 216.72 80.51 211.48 80.60
  Q 211.43 80.60 211.37 80.62
  Q 211.37 80.62 211.37 80.62
  Q 211.37 80.62 211.39 80.62
  Z"
/>
<path fill="#ffffff" d="
  M 39.55 107.57
  C 42.31 114.86 37.54 123.50 29.28 123.87
  Q 25.20 124.05 21.51 123.89
  A 0.55 0.55 0.0 0 1 20.99 123.28
  L 23.49 102.97
  Q 23.59 102.13 24.44 102.12
  C 29.81 102.06 37.13 101.18 39.55 107.57
  Z
  M 25.96 120.71
  C 30.31 121.24 34.26 120.12 35.63 115.59
  C 37.51 109.35 35.23 104.20 27.77 105.53
  A 0.84 0.84 0.0 0 0 27.08 106.26
  L 25.41 120.00
  Q 25.33 120.63 25.96 120.71
  Z"
/>
<path fill="#ffffff" d="
  M 47.82 120.76
  L 55.08 120.78
  A 0.66 0.66 0.0 0 1 55.73 121.45
  L 55.69 123.22
  A 0.66 0.66 0.0 0 1 55.04 123.86
  L 43.40 123.94
  A 0.66 0.66 0.0 0 1 42.74 123.20
  L 45.27 102.73
  A 0.66 0.66 0.0 0 1 45.92 102.15
  L 57.53 102.17
  A 0.66 0.66 0.0 0 1 58.18 102.98
  L 57.76 104.78
  A 0.66 0.66 0.0 0 1 57.14 105.29
  L 49.46 105.46
  A 0.66 0.66 0.0 0 0 48.82 106.05
  L 48.33 110.66
  A 0.66 0.66 0.0 0 0 48.96 111.39
  L 54.48 111.57
  A 0.66 0.66 0.0 0 1 55.10 112.36
  L 54.79 113.90
  A 0.66 0.66 0.0 0 1 54.16 114.42
  L 48.38 114.57
  A 0.66 0.66 0.0 0 0 47.74 115.15
  L 47.17 120.02
  A 0.66 0.66 0.0 0 0 47.82 120.76
  Z"
/>
<path fill="#ffffff" d="
  M 77.52 105.50
  C 72.55 105.96 70.80 111.31 71.22 115.76
  C 71.58 119.65 74.76 121.81 78.37 120.36
  Q 79.52 119.90 80.62 119.40
  Q 81.63 118.94 82.52 119.62
  Q 83.13 120.10 82.43 121.54
  A 1.46 1.39 -3.9 0 1 81.89 122.13
  C 75.51 126.00 67.69 124.21 67.07 116.02
  Q 66.56 109.08 70.96 104.94
  C 74.44 101.68 80.82 100.54 84.52 104.32
  A 1.02 1.02 0.0 0 1 84.79 105.29
  Q 84.51 106.49 83.27 106.81
  Q 82.72 106.96 82.23 106.65
  Q 80.04 105.27 77.52 105.50
  Z"
/>
<path fill="#ffffff" d="
  M 90.46 119.32
  L 88.92 122.90
  Q 88.47 123.93 87.34 123.96
  L 85.31 124.00
  Q 84.22 124.02 84.69 123.04
  L 94.37 103.05
  Q 94.64 102.49 95.22 102.28
  Q 96.71 101.73 98.44 102.27
  Q 98.93 102.42 99.05 102.92
  L 103.93 123.34
  A 0.49 0.48 84.4 0 1 103.45 123.94
  L 100.73 123.89
  Q 99.83 123.87 99.68 122.99
  L 99.15 119.72
  A 1.45 1.44 -4.7 0 0 97.72 118.52
  L 91.65 118.54
  Q 90.80 118.54 90.46 119.32
  Z
  M 92.38 115.09
  A 0.42 0.42 0.0 0 0 92.76 115.68
  L 97.74 115.73
  A 0.42 0.42 0.0 0 0 98.15 115.24
  L 96.64 107.32
  A 0.42 0.42 0.0 0 0 95.85 107.23
  L 92.38 115.09
  Z"
/>
<path fill="#ffffff" d="
  M 111.94 107.70
  A 2.11 2.11 0.0 0 0 113.12 110.15
  C 115.83 111.36 120.09 112.53 120.01 116.27
  C 119.87 123.82 112.18 126.13 106.49 122.21
  Q 105.59 121.59 106.09 120.62
  Q 106.38 120.06 106.84 119.61
  Q 107.76 118.71 108.87 119.37
  L 110.37 120.26
  Q 112.97 121.81 115.17 119.74
  Q 115.58 119.35 115.82 118.83
  Q 116.95 116.34 114.46 115.23
  C 112.11 114.18 108.60 113.30 108.25 110.31
  C 107.42 103.23 114.48 99.84 120.12 103.48
  Q 121.43 104.33 120.51 105.59
  L 120.33 105.84
  Q 119.57 106.88 118.41 106.31
  C 116.00 105.11 112.76 104.52 111.94 107.70
  Z"
/>
<path fill="#ffffff" d="
  M 135.77 119.40
  A 1.13 1.13 0.0 0 0 134.65 118.50
  L 128.73 118.57
  A 1.93 1.92 10.6 0 0 126.98 119.76
  L 125.85 122.54
  Q 125.27 123.95 123.75 123.97
  L 122.26 123.98
  Q 120.91 124.00 121.51 122.80
  Q 126.54 112.77 130.87 103.42
  Q 131.76 101.49 134.77 102.15
  A 1.47 1.46 -0.3 0 1 135.88 103.24
  L 140.57 123.04
  Q 140.83 124.15 139.70 124.04
  L 137.32 123.82
  Q 136.64 123.76 136.51 123.09
  L 135.77 119.40
  Z
  M 129.04 115.18
  A 0.37 0.37 0.0 0 0 129.38 115.70
  L 134.56 115.73
  A 0.37 0.37 0.0 0 0 134.93 115.29
  L 133.38 107.21
  A 0.37 0.37 0.0 0 0 132.68 107.13
  L 129.04 115.18
  Z"
/>
<path fill="#ffffff" d="
  M 155.90 110.07
  L 154.34 123.00
  A 1.11 1.10 -86.4 0 1 153.25 123.97
  L 151.68 123.97
  Q 150.64 123.98 150.77 122.94
  L 153.26 102.95
  A 0.82 0.82 0.0 0 1 153.77 102.29
  Q 155.93 101.43 157.14 103.58
  Q 160.75 110.03 164.38 116.21
  Q 165.03 117.32 165.19 116.05
  L 166.83 102.75
  Q 166.90 102.14 167.51 102.16
  L 169.86 102.23
  Q 170.47 102.25 170.39 102.85
  L 167.84 123.08
  A 1.05 1.03 -0.0 0 1 166.93 123.98
  Q 164.92 124.24 163.94 122.54
  Q 160.26 116.16 156.79 109.90
  Q 156.08 108.62 155.90 110.07
  Z"
/>
<path fill="#ffffff" d="
  M 177.8055 123.1844
  A 11.52 10.07 118.6 0 1 174.4787 108.2496
  A 11.52 10.07 118.6 0 1 188.8345 102.9556
  A 11.52 10.07 118.6 0 1 192.1613 117.8904
  A 11.52 10.07 118.6 0 1 177.8055 123.1844
  Z
  M 181.2491 120.8360
  A 8.04 6.19 105.0 0 0 189.3091 114.6721
  A 8.04 6.19 105.0 0 0 185.4109 105.3040
  A 8.04 6.19 105.0 0 0 177.3509 111.4679
  A 8.04 6.19 105.0 0 0 181.2491 120.8360
  Z"
/>
<path fill="#ffffff" d="
  M 205.18 118.20
  L 211.84 103.42
  Q 212.42 102.13 213.83 102.10
  L 215.47 102.05
  Q 216.79 102.02 216.21 103.21
  L 206.40 123.09
  Q 206.15 123.60 205.61 123.79
  Q 204.28 124.27 202.77 123.79
  Q 202.23 123.62 202.09 123.06
  L 197.19 103.23
  Q 196.91 102.12 198.06 102.12
  L 199.75 102.13
  Q 201.14 102.13 201.44 103.50
  L 204.58 118.13
  Q 204.78 119.07 205.18 118.20
  Z"
/>
<path fill="#ffffff" d="
  M 228.91 118.51
  L 222.18 118.59
  A 1.05 1.02 -78.3 0 0 221.23 119.23
  L 219.89 122.42
  Q 219.23 123.97 217.56 123.98
  L 216.30 123.98
  Q 215.01 123.99 215.57 122.82
  L 225.06 103.14
  Q 225.40 102.44 226.14 102.22
  Q 227.51 101.83 228.98 102.18
  Q 229.67 102.34 229.83 103.02
  L 234.54 122.91
  Q 234.83 124.11 233.59 124.03
  L 231.91 123.91
  Q 230.59 123.82 230.34 122.51
  L 229.73 119.19
  A 0.82 0.82 0.0 0 0 228.91 118.51
  Z
  M 223.04 115.17
  A 0.37 0.37 0.0 0 0 223.37 115.69
  L 228.55 115.72
  A 0.37 0.37 0.0 0 0 228.92 115.28
  L 227.38 107.21
  A 0.37 0.37 0.0 0 0 226.68 107.12
  L 223.04 115.17
  Z"
/>
<path fill="#5086c1" d="
  M 35.63 115.59
  C 34.26 120.12 30.31 121.24 25.96 120.71
  Q 25.33 120.63 25.41 120.00
  L 27.08 106.26
  A 0.84 0.84 0.0 0 1 27.77 105.53
  C 35.23 104.20 37.51 109.35 35.63 115.59
  Z"
/>
<ellipse fill="#5086c1" cx="0.00" cy="0.00" transform="translate(183.33,113.07) rotate(105.0)" rx="8.04" ry="6.19"/>
<path fill="#5086c1" d="
  M 129.04 115.18
  L 132.68 107.13
  A 0.37 0.37 0.0 0 1 133.38 107.21
  L 134.93 115.29
  A 0.37 0.37 0.0 0 1 134.56 115.73
  L 129.38 115.70
  A 0.37 0.37 0.0 0 1 129.04 115.18
  Z"
/>
<path fill="#5086c1" d="
  M 223.04 115.17
  L 226.68 107.12
  A 0.37 0.37 0.0 0 1 227.38 107.21
  L 228.92 115.28
  A 0.37 0.37 0.0 0 1 228.55 115.72
  L 223.37 115.69
  A 0.37 0.37 0.0 0 1 223.04 115.17
  Z"
/>
<path fill="#5086c1" d="
  M 92.38 115.09
  L 95.85 107.23
  A 0.42 0.42 0.0 0 1 96.64 107.32
  L 98.15 115.24
  A 0.42 0.42 0.0 0 1 97.74 115.73
  L 92.76 115.68
  A 0.42 0.42 0.0 0 1 92.38 115.09
  Z"
/>
</svg>
